<?xml version="1.0" standalone="no"?>
<svg xmlns="http://www.w3.org/2000/svg" version="1.1" width="1015" height="1015">
	<!-- Created with https://api.qrserver.com (QR Code API, see goQR.me/api for information) -->
	<title>QR Code</title>
	<desc>WIFI:T:WPA;S:WebGPS-Telemetry;P:webgps123;;</desc>
	<rect style="fill:rgb(255, 255, 255);fill-opacity:1" x="0" y="0" width="1015" height="1015" />
	<g id="elements">
		<path style="fill:rgb(0, 0, 0)" d="M 0,0 l 35,0 0,35 -35,0 z M 35,0 l 35,0 0,35 -35,0 z M 70,0 l 35,0 0,35 -35,0 z M 105,0 l 35,0 0,35 -35,0 z M 140,0 l 35,0 0,35 -35,0 z M 175,0 l 35,0 0,35 -35,0 z M 210,0 l 35,0 0,35 -35,0 z M 350,0 l 35,0 0,35 -35,0 z M 420,0 l 35,0 0,35 -35,0 z M 490,0 l 35,0 0,35 -35,0 z M 700,0 l 35,0 0,35 -35,0 z M 770,0 l 35,0 0,35 -35,0 z M 805,0 l 35,0 0,35 -35,0 z M 840,0 l 35,0 0,35 -35,0 z M 875,0 l 35,0 0,35 -35,0 z M 910,0 l 35,0 0,35 -35,0 z M 945,0 l 35,0 0,35 -35,0 z M 980,0 l 35,0 0,35 -35,0 z M 0,35 l 35,0 0,35 -35,0 z M 210,35 l 35,0 0,35 -35,0 z M 280,35 l 35,0 0,35 -35,0 z M 350,35 l 35,0 0,35 -35,0 z M 455,35 l 35,0 0,35 -35,0 z M 525,35 l 35,0 0,35 -35,0 z M 560,35 l 35,0 0,35 -35,0 z M 595,35 l 35,0 0,35 -35,0 z M 770,35 l 35,0 0,35 -35,0 z M 980,35 l 35,0 0,35 -35,0 z M 0,70 l 35,0 0,35 -35,0 z M 70,70 l 35,0 0,35 -35,0 z M 105,70 l 35,0 0,35 -35,0 z M 140,70 l 35,0 0,35 -35,0 z M 210,70 l 35,0 0,35 -35,0 z M 420,70 l 35,0 0,35 -35,0 z M 490,70 l 35,0 0,35 -35,0 z M 560,70 l 35,0 0,35 -35,0 z M 595,70 l 35,0 0,35 -35,0 z M 630,70 l 35,0 0,35 -35,0 z M 665,70 l 35,0 0,35 -35,0 z M 700,70 l 35,0 0,35 -35,0 z M 770,70 l 35,0 0,35 -35,0 z M 840,70 l 35,0 0,35 -35,0 z M 875,70 l 35,0 0,35 -35,0 z M 910,70 l 35,0 0,35 -35,0 z M 980,70 l 35,0 0,35 -35,0 z M 0,105 l 35,0 0,35 -35,0 z M 70,105 l 35,0 0,35 -35,0 z M 105,105 l 35,0 0,35 -35,0 z M 140,105 l 35,0 0,35 -35,0 z M 210,105 l 35,0 0,35 -35,0 z M 280,105 l 35,0 0,35 -35,0 z M 315,105 l 35,0 0,35 -35,0 z M 350,105 l 35,0 0,35 -35,0 z M 420,105 l 35,0 0,35 -35,0 z M 525,105 l 35,0 0,35 -35,0 z M 770,105 l 35,0 0,35 -35,0 z M 840,105 l 35,0 0,35 -35,0 z M 875,105 l 35,0 0,35 -35,0 z M 910,105 l 35,0 0,35 -35,0 z M 980,105 l 35,0 0,35 -35,0 z M 0,140 l 35,0 0,35 -35,0 z M 70,140 l 35,0 0,35 -35,0 z M 105,140 l 35,0 0,35 -35,0 z M 140,140 l 35,0 0,35 -35,0 z M 210,140 l 35,0 0,35 -35,0 z M 315,140 l 35,0 0,35 -35,0 z M 490,140 l 35,0 0,35 -35,0 z M 525,140 l 35,0 0,35 -35,0 z M 700,140 l 35,0 0,35 -35,0 z M 770,140 l 35,0 0,35 -35,0 z M 840,140 l 35,0 0,35 -35,0 z M 875,140 l 35,0 0,35 -35,0 z M 910,140 l 35,0 0,35 -35,0 z M 980,140 l 35,0 0,35 -35,0 z M 0,175 l 35,0 0,35 -35,0 z M 210,175 l 35,0 0,35 -35,0 z M 280,175 l 35,0 0,35 -35,0 z M 315,175 l 35,0 0,35 -35,0 z M 385,175 l 35,0 0,35 -35,0 z M 420,175 l 35,0 0,35 -35,0 z M 455,175 l 35,0 0,35 -35,0 z M 525,175 l 35,0 0,35 -35,0 z M 560,175 l 35,0 0,35 -35,0 z M 595,175 l 35,0 0,35 -35,0 z M 665,175 l 35,0 0,35 -35,0 z M 770,175 l 35,0 0,35 -35,0 z M 980,175 l 35,0 0,35 -35,0 z M 0,210 l 35,0 0,35 -35,0 z M 35,210 l 35,0 0,35 -35,0 z M 70,210 l 35,0 0,35 -35,0 z M 105,210 l 35,0 0,35 -35,0 z M 140,210 l 35,0 0,35 -35,0 z M 175,210 l 35,0 0,35 -35,0 z M 210,210 l 35,0 0,35 -35,0 z M 280,210 l 35,0 0,35 -35,0 z M 350,210 l 35,0 0,35 -35,0 z M 420,210 l 35,0 0,35 -35,0 z M 490,210 l 35,0 0,35 -35,0 z M 560,210 l 35,0 0,35 -35,0 z M 630,210 l 35,0 0,35 -35,0 z M 700,210 l 35,0 0,35 -35,0 z M 770,210 l 35,0 0,35 -35,0 z M 805,210 l 35,0 0,35 -35,0 z M 840,210 l 35,0 0,35 -35,0 z M 875,210 l 35,0 0,35 -35,0 z M 910,210 l 35,0 0,35 -35,0 z M 945,210 l 35,0 0,35 -35,0 z M 980,210 l 35,0 0,35 -35,0 z M 315,245 l 35,0 0,35 -35,0 z M 350,245 l 35,0 0,35 -35,0 z M 385,245 l 35,0 0,35 -35,0 z M 490,245 l 35,0 0,35 -35,0 z M 560,245 l 35,0 0,35 -35,0 z M 630,245 l 35,0 0,35 -35,0 z M 665,245 l 35,0 0,35 -35,0 z M 700,245 l 35,0 0,35 -35,0 z M 0,280 l 35,0 0,35 -35,0 z M 35,280 l 35,0 0,35 -35,0 z M 70,280 l 35,0 0,35 -35,0 z M 105,280 l 35,0 0,35 -35,0 z M 140,280 l 35,0 0,35 -35,0 z M 210,280 l 35,0 0,35 -35,0 z M 245,280 l 35,0 0,35 -35,0 z M 280,280 l 35,0 0,35 -35,0 z M 315,280 l 35,0 0,35 -35,0 z M 385,280 l 35,0 0,35 -35,0 z M 455,280 l 35,0 0,35 -35,0 z M 525,280 l 35,0 0,35 -35,0 z M 560,280 l 35,0 0,35 -35,0 z M 700,280 l 35,0 0,35 -35,0 z M 735,280 l 35,0 0,35 -35,0 z M 805,280 l 35,0 0,35 -35,0 z M 875,280 l 35,0 0,35 -35,0 z M 945,280 l 35,0 0,35 -35,0 z M 0,315 l 35,0 0,35 -35,0 z M 35,315 l 35,0 0,35 -35,0 z M 105,315 l 35,0 0,35 -35,0 z M 245,315 l 35,0 0,35 -35,0 z M 280,315 l 35,0 0,35 -35,0 z M 350,315 l 35,0 0,35 -35,0 z M 420,315 l 35,0 0,35 -35,0 z M 560,315 l 35,0 0,35 -35,0 z M 700,315 l 35,0 0,35 -35,0 z M 770,315 l 35,0 0,35 -35,0 z M 805,315 l 35,0 0,35 -35,0 z M 840,315 l 35,0 0,35 -35,0 z M 875,315 l 35,0 0,35 -35,0 z M 980,315 l 35,0 0,35 -35,0 z M 105,350 l 35,0 0,35 -35,0 z M 140,350 l 35,0 0,35 -35,0 z M 175,350 l 35,0 0,35 -35,0 z M 210,350 l 35,0 0,35 -35,0 z M 245,350 l 35,0 0,35 -35,0 z M 350,350 l 35,0 0,35 -35,0 z M 455,350 l 35,0 0,35 -35,0 z M 525,350 l 35,0 0,35 -35,0 z M 595,350 l 35,0 0,35 -35,0 z M 805,350 l 35,0 0,35 -35,0 z M 840,350 l 35,0 0,35 -35,0 z M 910,350 l 35,0 0,35 -35,0 z M 980,350 l 35,0 0,35 -35,0 z M 35,385 l 35,0 0,35 -35,0 z M 70,385 l 35,0 0,35 -35,0 z M 105,385 l 35,0 0,35 -35,0 z M 245,385 l 35,0 0,35 -35,0 z M 280,385 l 35,0 0,35 -35,0 z M 420,385 l 35,0 0,35 -35,0 z M 490,385 l 35,0 0,35 -35,0 z M 560,385 l 35,0 0,35 -35,0 z M 665,385 l 35,0 0,35 -35,0 z M 700,385 l 35,0 0,35 -35,0 z M 735,385 l 35,0 0,35 -35,0 z M 770,385 l 35,0 0,35 -35,0 z M 805,385 l 35,0 0,35 -35,0 z M 840,385 l 35,0 0,35 -35,0 z M 875,385 l 35,0 0,35 -35,0 z M 980,385 l 35,0 0,35 -35,0 z M 0,420 l 35,0 0,35 -35,0 z M 35,420 l 35,0 0,35 -35,0 z M 70,420 l 35,0 0,35 -35,0 z M 175,420 l 35,0 0,35 -35,0 z M 210,420 l 35,0 0,35 -35,0 z M 245,420 l 35,0 0,35 -35,0 z M 280,420 l 35,0 0,35 -35,0 z M 315,420 l 35,0 0,35 -35,0 z M 350,420 l 35,0 0,35 -35,0 z M 420,420 l 35,0 0,35 -35,0 z M 455,420 l 35,0 0,35 -35,0 z M 525,420 l 35,0 0,35 -35,0 z M 875,420 l 35,0 0,35 -35,0 z M 910,420 l 35,0 0,35 -35,0 z M 945,420 l 35,0 0,35 -35,0 z M 980,420 l 35,0 0,35 -35,0 z M 105,455 l 35,0 0,35 -35,0 z M 140,455 l 35,0 0,35 -35,0 z M 175,455 l 35,0 0,35 -35,0 z M 245,455 l 35,0 0,35 -35,0 z M 280,455 l 35,0 0,35 -35,0 z M 315,455 l 35,0 0,35 -35,0 z M 490,455 l 35,0 0,35 -35,0 z M 630,455 l 35,0 0,35 -35,0 z M 700,455 l 35,0 0,35 -35,0 z M 875,455 l 35,0 0,35 -35,0 z M 910,455 l 35,0 0,35 -35,0 z M 945,455 l 35,0 0,35 -35,0 z M 980,455 l 35,0 0,35 -35,0 z M 0,490 l 35,0 0,35 -35,0 z M 35,490 l 35,0 0,35 -35,0 z M 70,490 l 35,0 0,35 -35,0 z M 105,490 l 35,0 0,35 -35,0 z M 140,490 l 35,0 0,35 -35,0 z M 210,490 l 35,0 0,35 -35,0 z M 245,490 l 35,0 0,35 -35,0 z M 315,490 l 35,0 0,35 -35,0 z M 350,490 l 35,0 0,35 -35,0 z M 385,490 l 35,0 0,35 -35,0 z M 420,490 l 35,0 0,35 -35,0 z M 455,490 l 35,0 0,35 -35,0 z M 525,490 l 35,0 0,35 -35,0 z M 595,490 l 35,0 0,35 -35,0 z M 700,490 l 35,0 0,35 -35,0 z M 805,490 l 35,0 0,35 -35,0 z M 910,490 l 35,0 0,35 -35,0 z M 35,525 l 35,0 0,35 -35,0 z M 70,525 l 35,0 0,35 -35,0 z M 105,525 l 35,0 0,35 -35,0 z M 175,525 l 35,0 0,35 -35,0 z M 280,525 l 35,0 0,35 -35,0 z M 315,525 l 35,0 0,35 -35,0 z M 385,525 l 35,0 0,35 -35,0 z M 455,525 l 35,0 0,35 -35,0 z M 490,525 l 35,0 0,35 -35,0 z M 560,525 l 35,0 0,35 -35,0 z M 700,525 l 35,0 0,35 -35,0 z M 735,525 l 35,0 0,35 -35,0 z M 770,525 l 35,0 0,35 -35,0 z M 840,525 l 35,0 0,35 -35,0 z M 875,525 l 35,0 0,35 -35,0 z M 910,525 l 35,0 0,35 -35,0 z M 0,560 l 35,0 0,35 -35,0 z M 35,560 l 35,0 0,35 -35,0 z M 70,560 l 35,0 0,35 -35,0 z M 140,560 l 35,0 0,35 -35,0 z M 210,560 l 35,0 0,35 -35,0 z M 350,560 l 35,0 0,35 -35,0 z M 385,560 l 35,0 0,35 -35,0 z M 455,560 l 35,0 0,35 -35,0 z M 525,560 l 35,0 0,35 -35,0 z M 560,560 l 35,0 0,35 -35,0 z M 595,560 l 35,0 0,35 -35,0 z M 630,560 l 35,0 0,35 -35,0 z M 700,560 l 35,0 0,35 -35,0 z M 735,560 l 35,0 0,35 -35,0 z M 805,560 l 35,0 0,35 -35,0 z M 910,560 l 35,0 0,35 -35,0 z M 0,595 l 35,0 0,35 -35,0 z M 70,595 l 35,0 0,35 -35,0 z M 105,595 l 35,0 0,35 -35,0 z M 140,595 l 35,0 0,35 -35,0 z M 315,595 l 35,0 0,35 -35,0 z M 350,595 l 35,0 0,35 -35,0 z M 420,595 l 35,0 0,35 -35,0 z M 490,595 l 35,0 0,35 -35,0 z M 525,595 l 35,0 0,35 -35,0 z M 560,595 l 35,0 0,35 -35,0 z M 630,595 l 35,0 0,35 -35,0 z M 700,595 l 35,0 0,35 -35,0 z M 735,595 l 35,0 0,35 -35,0 z M 770,595 l 35,0 0,35 -35,0 z M 840,595 l 35,0 0,35 -35,0 z M 875,595 l 35,0 0,35 -35,0 z M 945,595 l 35,0 0,35 -35,0 z M 980,595 l 35,0 0,35 -35,0 z M 0,630 l 35,0 0,35 -35,0 z M 175,630 l 35,0 0,35 -35,0 z M 210,630 l 35,0 0,35 -35,0 z M 280,630 l 35,0 0,35 -35,0 z M 315,630 l 35,0 0,35 -35,0 z M 350,630 l 35,0 0,35 -35,0 z M 455,630 l 35,0 0,35 -35,0 z M 525,630 l 35,0 0,35 -35,0 z M 595,630 l 35,0 0,35 -35,0 z M 665,630 l 35,0 0,35 -35,0 z M 805,630 l 35,0 0,35 -35,0 z M 840,630 l 35,0 0,35 -35,0 z M 945,630 l 35,0 0,35 -35,0 z M 0,665 l 35,0 0,35 -35,0 z M 70,665 l 35,0 0,35 -35,0 z M 140,665 l 35,0 0,35 -35,0 z M 175,665 l 35,0 0,35 -35,0 z M 315,665 l 35,0 0,35 -35,0 z M 420,665 l 35,0 0,35 -35,0 z M 455,665 l 35,0 0,35 -35,0 z M 490,665 l 35,0 0,35 -35,0 z M 560,665 l 35,0 0,35 -35,0 z M 595,665 l 35,0 0,35 -35,0 z M 665,665 l 35,0 0,35 -35,0 z M 735,665 l 35,0 0,35 -35,0 z M 805,665 l 35,0 0,35 -35,0 z M 840,665 l 35,0 0,35 -35,0 z M 875,665 l 35,0 0,35 -35,0 z M 980,665 l 35,0 0,35 -35,0 z M 0,700 l 35,0 0,35 -35,0 z M 70,700 l 35,0 0,35 -35,0 z M 140,700 l 35,0 0,35 -35,0 z M 175,700 l 35,0 0,35 -35,0 z M 210,700 l 35,0 0,35 -35,0 z M 245,700 l 35,0 0,35 -35,0 z M 280,700 l 35,0 0,35 -35,0 z M 350,700 l 35,0 0,35 -35,0 z M 420,700 l 35,0 0,35 -35,0 z M 455,700 l 35,0 0,35 -35,0 z M 525,700 l 35,0 0,35 -35,0 z M 560,700 l 35,0 0,35 -35,0 z M 630,700 l 35,0 0,35 -35,0 z M 700,700 l 35,0 0,35 -35,0 z M 735,700 l 35,0 0,35 -35,0 z M 770,700 l 35,0 0,35 -35,0 z M 805,700 l 35,0 0,35 -35,0 z M 840,700 l 35,0 0,35 -35,0 z M 910,700 l 35,0 0,35 -35,0 z M 945,700 l 35,0 0,35 -35,0 z M 980,700 l 35,0 0,35 -35,0 z M 280,735 l 35,0 0,35 -35,0 z M 490,735 l 35,0 0,35 -35,0 z M 560,735 l 35,0 0,35 -35,0 z M 665,735 l 35,0 0,35 -35,0 z M 700,735 l 35,0 0,35 -35,0 z M 840,735 l 35,0 0,35 -35,0 z M 875,735 l 35,0 0,35 -35,0 z M 910,735 l 35,0 0,35 -35,0 z M 0,770 l 35,0 0,35 -35,0 z M 35,770 l 35,0 0,35 -35,0 z M 70,770 l 35,0 0,35 -35,0 z M 105,770 l 35,0 0,35 -35,0 z M 140,770 l 35,0 0,35 -35,0 z M 175,770 l 35,0 0,35 -35,0 z M 210,770 l 35,0 0,35 -35,0 z M 280,770 l 35,0 0,35 -35,0 z M 385,770 l 35,0 0,35 -35,0 z M 420,770 l 35,0 0,35 -35,0 z M 525,770 l 35,0 0,35 -35,0 z M 560,770 l 35,0 0,35 -35,0 z M 595,770 l 35,0 0,35 -35,0 z M 630,770 l 35,0 0,35 -35,0 z M 665,770 l 35,0 0,35 -35,0 z M 700,770 l 35,0 0,35 -35,0 z M 770,770 l 35,0 0,35 -35,0 z M 840,770 l 35,0 0,35 -35,0 z M 875,770 l 35,0 0,35 -35,0 z M 910,770 l 35,0 0,35 -35,0 z M 0,805 l 35,0 0,35 -35,0 z M 210,805 l 35,0 0,35 -35,0 z M 315,805 l 35,0 0,35 -35,0 z M 350,805 l 35,0 0,35 -35,0 z M 385,805 l 35,0 0,35 -35,0 z M 560,805 l 35,0 0,35 -35,0 z M 595,805 l 35,0 0,35 -35,0 z M 700,805 l 35,0 0,35 -35,0 z M 840,805 l 35,0 0,35 -35,0 z M 875,805 l 35,0 0,35 -35,0 z M 0,840 l 35,0 0,35 -35,0 z M 70,840 l 35,0 0,35 -35,0 z M 105,840 l 35,0 0,35 -35,0 z M 140,840 l 35,0 0,35 -35,0 z M 210,840 l 35,0 0,35 -35,0 z M 280,840 l 35,0 0,35 -35,0 z M 315,840 l 35,0 0,35 -35,0 z M 350,840 l 35,0 0,35 -35,0 z M 385,840 l 35,0 0,35 -35,0 z M 525,840 l 35,0 0,35 -35,0 z M 595,840 l 35,0 0,35 -35,0 z M 630,840 l 35,0 0,35 -35,0 z M 700,840 l 35,0 0,35 -35,0 z M 735,840 l 35,0 0,35 -35,0 z M 770,840 l 35,0 0,35 -35,0 z M 805,840 l 35,0 0,35 -35,0 z M 840,840 l 35,0 0,35 -35,0 z M 0,875 l 35,0 0,35 -35,0 z M 70,875 l 35,0 0,35 -35,0 z M 105,875 l 35,0 0,35 -35,0 z M 140,875 l 35,0 0,35 -35,0 z M 210,875 l 35,0 0,35 -35,0 z M 280,875 l 35,0 0,35 -35,0 z M 420,875 l 35,0 0,35 -35,0 z M 455,875 l 35,0 0,35 -35,0 z M 665,875 l 35,0 0,35 -35,0 z M 805,875 l 35,0 0,35 -35,0 z M 945,875 l 35,0 0,35 -35,0 z M 0,910 l 35,0 0,35 -35,0 z M 70,910 l 35,0 0,35 -35,0 z M 105,910 l 35,0 0,35 -35,0 z M 140,910 l 35,0 0,35 -35,0 z M 210,910 l 35,0 0,35 -35,0 z M 280,910 l 35,0 0,35 -35,0 z M 350,910 l 35,0 0,35 -35,0 z M 455,910 l 35,0 0,35 -35,0 z M 490,910 l 35,0 0,35 -35,0 z M 560,910 l 35,0 0,35 -35,0 z M 665,910 l 35,0 0,35 -35,0 z M 770,910 l 35,0 0,35 -35,0 z M 910,910 l 35,0 0,35 -35,0 z M 945,910 l 35,0 0,35 -35,0 z M 0,945 l 35,0 0,35 -35,0 z M 210,945 l 35,0 0,35 -35,0 z M 280,945 l 35,0 0,35 -35,0 z M 315,945 l 35,0 0,35 -35,0 z M 420,945 l 35,0 0,35 -35,0 z M 455,945 l 35,0 0,35 -35,0 z M 805,945 l 35,0 0,35 -35,0 z M 945,945 l 35,0 0,35 -35,0 z M 980,945 l 35,0 0,35 -35,0 z M 0,980 l 35,0 0,35 -35,0 z M 35,980 l 35,0 0,35 -35,0 z M 70,980 l 35,0 0,35 -35,0 z M 105,980 l 35,0 0,35 -35,0 z M 140,980 l 35,0 0,35 -35,0 z M 175,980 l 35,0 0,35 -35,0 z M 210,980 l 35,0 0,35 -35,0 z M 280,980 l 35,0 0,35 -35,0 z M 420,980 l 35,0 0,35 -35,0 z M 490,980 l 35,0 0,35 -35,0 z M 525,980 l 35,0 0,35 -35,0 z M 630,980 l 35,0 0,35 -35,0 z M 840,980 l 35,0 0,35 -35,0 z M 875,980 l 35,0 0,35 -35,0 z M 945,980 l 35,0 0,35 -35,0 z " />
	</g>
</svg>
